<svg width="476" height="61" viewBox="0 0 476 61" fill="none" xmlns="http://www.w3.org/2000/svg">
<path d="M18.9349 49.6631C15.4363 49.6631 12.3003 49.1084 9.52692 47.9991C6.75359 46.8684 4.55626 45.1937 2.93492 42.9751C1.33492 40.7564 0.534922 38.0044 0.534922 34.7191C0.534922 34.4417 0.534922 34.1644 0.534922 33.8871C0.534922 33.6097 0.534922 33.3324 0.534922 33.0551H13.4309C13.4309 33.2897 13.4309 33.5244 13.4309 33.7591C13.4309 33.9937 13.4309 34.2284 13.4309 34.4631C13.4309 35.9564 13.8896 37.2044 14.8069 38.2071C15.7456 39.2097 17.1643 39.7111 19.0629 39.7111C20.8976 39.7111 22.3376 39.4444 23.3829 38.9111C24.4496 38.3564 24.9829 37.4604 24.9829 36.2231C24.9829 35.3057 24.4816 34.4524 23.4789 33.6631C22.4976 32.8737 21.1643 32.1271 19.4789 31.4231C17.8149 30.7191 15.9589 30.0471 13.9109 29.4071C11.6923 28.7031 9.58026 27.7537 7.57492 26.5591C5.59092 25.3644 3.96959 23.8177 2.71092 21.9191C1.45226 19.9991 0.822922 17.6204 0.822922 14.7831C0.822922 11.8604 1.63359 9.36438 3.25492 7.29505C4.87626 5.20439 7.05226 3.60439 9.78292 2.49505C12.5349 1.38572 15.5856 0.831051 18.9349 0.831051C22.4123 0.831051 25.5163 1.37505 28.2469 2.46305C30.9989 3.55105 33.1749 5.15105 34.7749 7.26305C36.3749 9.37505 37.1749 11.9884 37.1749 15.1031C37.1749 15.3804 37.1749 15.6471 37.1749 15.9031C37.1749 16.1591 37.1749 16.4257 37.1749 16.7031H24.2789C24.2789 16.5964 24.2789 16.4364 24.2789 16.2231C24.2789 15.9884 24.2789 15.8177 24.2789 15.7111C24.2789 14.3244 23.8843 13.1511 23.0949 12.1911C22.3269 11.2311 20.9936 10.7511 19.0949 10.7511C17.2176 10.7511 15.7669 11.0924 14.7429 11.7751C13.7403 12.4577 13.2389 13.4497 13.2389 14.7511C13.2389 15.6684 13.6656 16.4791 14.5189 17.1831C15.3723 17.8657 16.5456 18.5057 18.0389 19.1031C19.5536 19.7004 21.2603 20.3404 23.1589 21.0231C26.0176 22.0257 28.5243 23.1351 30.6789 24.3511C32.8336 25.5457 34.5083 27.0497 35.7029 28.8631C36.9189 30.6764 37.5269 33.0017 37.5269 35.8391C37.5269 38.8044 36.7269 41.3217 35.1269 43.3911C33.5269 45.4391 31.3189 46.9964 28.5029 48.0631C25.7083 49.1297 22.5189 49.6631 18.9349 49.6631ZM58.9309 48.1271H69.8109C69.8109 48.9804 70.1523 49.6737 70.8349 50.2071C71.5389 50.7617 72.3709 51.1884 73.3309 51.4871C74.2909 51.7857 75.1976 51.9991 76.0509 52.1271C76.9043 52.2551 77.4909 52.3404 77.8109 52.3831L74.2269 60.9271C73.9283 60.9271 73.2243 60.8524 72.1149 60.7031C71.0056 60.5537 69.7043 60.2444 68.2109 59.7751C66.7389 59.3057 65.2883 58.6017 63.8589 57.6631C62.4509 56.7457 61.2776 55.5084 60.3389 53.9511C59.4003 52.3937 58.9309 50.4524 58.9309 48.1271ZM64.8189 49.6631C61.7683 49.6631 58.8669 49.1404 56.1149 48.0951C53.3843 47.0497 50.9629 45.4924 48.8509 43.4231C46.7389 41.3537 45.0749 38.7937 43.8589 35.7431C42.6429 32.6924 42.0349 29.1724 42.0349 25.1831C42.0349 21.1724 42.6323 17.6524 43.8269 14.6231C45.0429 11.5937 46.6963 9.05505 48.7869 7.00705C50.8989 4.95905 53.3203 3.42305 56.0509 2.39905C58.8029 1.35372 61.7256 0.831051 64.8189 0.831051C67.9123 0.831051 70.8349 1.35372 73.5869 2.39905C76.3389 3.42305 78.7603 4.95905 80.8509 7.00705C82.9629 9.05505 84.6163 11.5937 85.8109 14.6231C87.0056 17.6524 87.6029 21.1724 87.6029 25.1831C87.6029 29.1724 86.9949 32.6924 85.7789 35.7431C84.5629 38.7937 82.8883 41.3537 80.7549 43.4231C78.6429 45.4924 76.2109 47.0497 73.4589 48.0951C70.7283 49.1404 67.8483 49.6631 64.8189 49.6631ZM64.8189 39.6791C66.3976 39.6791 67.9229 39.2524 69.3949 38.3991C70.8883 37.5244 72.1043 36.0311 73.0429 33.9191C74.0029 31.8071 74.4829 28.8951 74.4829 25.1831C74.4829 21.4497 74.0029 18.5484 73.0429 16.4791C72.0829 14.3884 70.8669 12.9271 69.3949 12.0951C67.9229 11.2417 66.3976 10.8151 64.8189 10.8151C63.2616 10.8151 61.7363 11.2417 60.2429 12.0951C58.7709 12.9271 57.5549 14.3884 56.5949 16.4791C55.6349 18.5484 55.1549 21.4497 55.1549 25.1831C55.1549 28.9164 55.6349 31.8391 56.5949 33.9511C57.5549 36.0417 58.7709 37.5244 60.2429 38.3991C61.7363 39.2524 63.2616 39.6791 64.8189 39.6791ZM93.3774 48.8311V1.63105H106.305V45.0231L100.481 38.5591H123.137V48.8311H93.3774ZM186 31.0071C186 33.1617 185.584 35.3377 184.752 37.5351C183.942 39.7111 182.694 41.7164 181.008 43.5511C179.344 45.3857 177.222 46.8684 174.64 47.9991C172.08 49.1084 169.04 49.6631 165.52 49.6631C160.891 49.6631 156.923 48.6284 153.616 46.5591C150.331 44.4684 147.814 41.5884 146.064 37.9191C144.336 34.2497 143.472 30.0151 143.472 25.2151C143.472 20.4151 144.336 16.1911 146.064 12.5431C147.814 8.87372 150.331 6.00438 153.616 3.93505C156.923 1.86572 160.891 0.831051 165.52 0.831051C169.36 0.831051 172.635 1.48172 175.344 2.78305C178.075 4.08439 180.262 5.79105 181.904 7.90305C183.568 10.0151 184.72 12.2764 185.36 14.6871C185.787 16.3297 186 17.9191 186 19.4551H173.04C173.04 18.7724 172.998 18.1751 172.912 17.6631C172.72 16.2764 172.304 15.0711 171.664 14.0471C171.024 13.0231 170.182 12.2337 169.136 11.6791C168.112 11.1031 166.907 10.8151 165.52 10.8151C163.856 10.8151 162.352 11.3057 161.008 12.2871C159.664 13.2684 158.587 14.8151 157.776 16.9271C156.987 19.0391 156.592 21.8017 156.592 25.2151C156.592 28.6071 156.987 31.3697 157.776 33.5031C158.587 35.6364 159.664 37.2044 161.008 38.2071C162.352 39.2097 163.856 39.7111 165.52 39.7111C166.715 39.7111 167.771 39.4977 168.688 39.0711C169.627 38.6231 170.416 38.0044 171.056 37.2151C171.696 36.4257 172.187 35.5084 172.528 34.4631C172.87 33.3964 173.04 32.2444 173.04 31.0071H186ZM213.256 49.6631C210.206 49.6631 207.304 49.1404 204.552 48.0951C201.822 47.0497 199.4 45.4924 197.288 43.4231C195.176 41.3537 193.512 38.7937 192.296 35.7431C191.08 32.6924 190.472 29.1724 190.472 25.1831C190.472 21.1724 191.07 17.6524 192.264 14.6231C193.48 11.5937 195.134 9.05505 197.224 7.00705C199.336 4.95905 201.758 3.42305 204.488 2.39905C207.24 1.35372 210.163 0.831051 213.256 0.831051C216.35 0.831051 219.272 1.35372 222.024 2.39905C224.776 3.42305 227.198 4.95905 229.288 7.00705C231.4 9.05505 233.054 11.5937 234.248 14.6231C235.443 17.6524 236.04 21.1724 236.04 25.1831C236.04 29.1724 235.432 32.6924 234.216 35.7431C233 38.7937 231.326 41.3537 229.192 43.4231C227.08 45.4924 224.648 47.0497 221.896 48.0951C219.166 49.1404 216.286 49.6631 213.256 49.6631ZM213.256 39.6791C214.835 39.6791 216.36 39.2524 217.832 38.3991C219.326 37.5244 220.542 36.0311 221.48 33.9191C222.44 31.8071 222.92 28.8951 222.92 25.1831C222.92 21.4497 222.44 18.5484 221.48 16.4791C220.52 14.3884 219.304 12.9271 217.832 12.0951C216.36 11.2417 214.835 10.8151 213.256 10.8151C211.699 10.8151 210.174 11.2417 208.68 12.0951C207.208 12.9271 205.992 14.3884 205.032 16.4791C204.072 18.5484 203.592 21.4497 203.592 25.1831C203.592 28.9164 204.072 31.8391 205.032 33.9511C205.992 36.0417 207.208 37.5244 208.68 38.3991C210.174 39.2524 211.699 39.6791 213.256 39.6791ZM275.831 1.63105H297.559V48.8311H285.303V8.51105L285.527 8.63905L278.199 48.8311H261.751L254.199 8.54305L254.423 8.41505V48.8311H242.135V1.63105H263.863L270.455 43.9031H269.143L275.831 1.63105ZM317.868 48.8311H304.94V1.63105H323.02C326.604 1.63105 329.729 2.34572 332.396 3.77505C335.063 5.18305 337.132 7.11372 338.604 9.56705C340.076 12.0204 340.812 14.7937 340.812 17.8871C340.812 20.9804 340.076 23.7964 338.604 26.3351C337.132 28.8524 335.063 30.8684 332.396 32.3831C329.729 33.8764 326.604 34.6231 323.02 34.6231H317.868V48.8311ZM317.868 30.8791L312.044 25.0551H321.708C322.775 25.0551 323.767 24.7991 324.684 24.2871C325.623 23.7537 326.38 22.9537 326.956 21.8871C327.532 20.8204 327.82 19.4871 327.82 17.8871C327.82 16.2871 327.532 14.9964 326.956 14.0151C326.38 13.0337 325.623 12.3297 324.684 11.9031C323.767 11.4551 322.775 11.2311 321.708 11.2311H312.044L317.868 5.40705V30.8791ZM346.217 48.8311V1.63105H358.953V48.8311H346.217ZM365.815 48.8311V1.63105H378.743V45.0231L372.919 38.5591H395.575V48.8311H365.815ZM408.358 11.2311L414.182 5.40705V23.8071L411.302 20.3511H428.262V29.9511H411.302L414.182 26.5271V45.0551L408.358 39.2311H431.814V48.8311H401.19V1.63105H431.814V11.2311H408.358ZM438.877 48.8311V1.63105H459.805C465.181 1.63105 469.149 2.82572 471.709 5.21505C474.291 7.58305 475.581 10.8897 475.581 15.1351C475.581 17.5244 475.123 19.5617 474.205 21.2471C473.288 22.9324 472.147 24.2337 470.781 25.1511C469.416 26.0684 468.061 26.5804 466.717 26.6871C468.104 26.7724 469.395 27.1031 470.589 27.6791C471.784 28.2551 472.744 29.1831 473.469 30.4631C474.216 31.7217 474.589 33.4284 474.589 35.5831C474.589 36.9484 474.589 38.2497 474.589 39.4871C474.589 40.7244 474.589 42.0257 474.589 43.3911C474.589 44.5217 474.675 45.5991 474.845 46.6231C475.037 47.6257 475.325 48.3617 475.709 48.8311H462.781C462.44 48.2977 462.173 47.5404 461.981 46.5591C461.811 45.5777 461.725 44.5217 461.725 43.3911C461.725 42.2177 461.725 41.1617 461.725 40.2231C461.725 39.2844 461.725 38.2284 461.725 37.0551C461.725 35.3484 461.363 34.0044 460.637 33.0231C459.912 32.0204 458.6 31.5191 456.701 31.5191H448.125L451.485 27.5831V48.8311H438.877ZM451.485 26.4311L448.125 21.9191H456.829C457.917 21.9191 458.867 21.6951 459.677 21.2471C460.509 20.7991 461.149 20.1591 461.597 19.3271C462.067 18.4737 462.301 17.4817 462.301 16.3511C462.301 14.9644 461.8 13.7591 460.797 12.7351C459.816 11.7111 458.472 11.1991 456.765 11.1991H447.805L451.485 7.35905V26.4311Z" fill="url(#paint0_radial_26_233)"/>
<defs>
<radialGradient id="paint0_radial_26_233" cx="0" cy="0" r="1" gradientUnits="userSpaceOnUse" gradientTransform="translate(238.107 -11.1689) rotate(90) scale(69.8011 256.371)">
<stop stop-color="#FF8D8D"/>
<stop offset="0.390625" stop-color="#C25FFF"/>
<stop offset="0.651042" stop-color="#7000FF"/>
<stop offset="1" stop-color="#00A3FF"/>
</radialGradient>
</defs>
</svg>
